<svg xmlns="http://www.w3.org/2000/svg" xmlns:xlink="http://www.w3.org/1999/xlink" width="50" height="50" fill="none" xmlns:v="https://vecta.io/nano"><style><![CDATA[.B{fill-rule:evenodd}.C{stroke:#fff}.D{stroke-width:.5}.E{stroke-width:.3}]]></style><g opacity=".1" filter="url(#D)" class="B"><path d="M.032 22.19c.073-7.774.109-11.661 1.645-14.627a14 14 0 0 1 6.111-6.054C10.769 0 14.656 0 22.431 0h3.62 1.52c7.774 0 11.661 0 14.642 1.508a14 14 0 0 1 6.111 6.054c1.536 2.966 1.573 6.853 1.646 14.627L50 25.442l-.023 2.377c-.076 7.772-.114 11.657-1.65 14.622a14 14 0 0 1-6.111 6.052C39.236 50 35.35 50 27.578 50h-2.632-2.524c-7.771 0-11.657 0-14.637-1.507a14 14 0 0 1-6.111-6.051C.137 39.477.098 35.591.022 27.82L0 25.559.032 22.19z" fill="#4a6d86"/></g><mask id="A" maskUnits="userSpaceOnUse" x="0" y="0" width="50" height="50" mask-type="alpha"><path d="M.032 22.19c.073-7.774.109-11.661 1.645-14.627a14 14 0 0 1 6.111-6.054C10.769 0 14.656 0 22.431 0h3.62 1.52c7.774 0 11.661 0 14.642 1.508a14 14 0 0 1 6.111 6.054c1.536 2.966 1.573 6.853 1.646 14.627L50 25.442l-.023 2.377c-.076 7.772-.114 11.657-1.65 14.622a14 14 0 0 1-6.111 6.052C39.236 50 35.35 50 27.578 50h-2.632-2.524c-7.771 0-11.657 0-14.637-1.507a14 14 0 0 1-6.111-6.051C.137 39.477.098 35.591.022 27.82L0 25.559.032 22.19z" fill="#fff" class="B"/></mask><g mask="url(#A)"><rect x="3.922" y="6.923" width="21.569" height="17.803" rx="4" fill="#fff"/><mask id="B" maskUnits="userSpaceOnUse" x="3" y="6" width="23" height="19" mask-type="alpha"><rect x="3.922" y="6.923" width="21.569" height="17.803" rx="4" fill="#fff"/></mask><g mask="url(#B)"><g style="mix-blend-mode:luminosity" opacity=".3"><path d="M20.809 21.689l3.022.596s1.042.14 2.639 2.313H9.658l.479-.981s.628-1.2 2.197-1.4l3.666-.6s.093 1.953 1.959 2.007c0 0 2.137.243 2.203-2.007l.646.072z" fill="url(#E)" class="B"/><path d="M16.761 13.228s1.992 1.212 5.212.826v3.223c0 .6-.116 1.199-.387 1.732-.263.517-.698 1.05-1.414 1.294v1.314s.109 1.797-1.937 2.155c0 0-2.183.04-2.265-2.155v-2.772s-1.501-.991-1.583-2.23c0 0-.061-1.253 1.214-.875 0 0 .222.154.291.587 0 0 .222.168.291-.252 0 0 .242-.492.578-2.847" fill="url(#F)" class="B"/><path d="M15.737 11.629s-2.718 2.057-2.691 7.377c0 0-.299 2.057 1.658 2.358 0 0 1.468.274 2.609 0 0 0-1.159-1.1-1.228-2.953 0 0-.407.384-.914-.408 0 0-.912-.699-.53-1.644 0 0 .208-.466 1.051-.256 0 0 .393.234.508.898 0 0 .278-.012.289-1.131l.011-.898s1.19-.513 1.513-1.305c0 0 1.976 1.457 3.674.559l.058 3.346s.128 1.888-1.617 2.692v1.353h3.166s.505-9.884-3.281-10.624c0 0-2.846-.512-4.277.636" fill="url(#G)" class="B"/><path d="M14.989 15.812l1.62.577" class="C E"/><path d="M19.023 16.526c0 .641-.515 1.16-1.15 1.16s-1.151-.519-1.151-1.16.515-1.16 1.151-1.16 1.15.519 1.15 1.16zm2.951 0c0 .641-.515 1.16-1.15 1.16s-1.15-.519-1.15-1.16.515-1.16 1.15-1.16 1.15.519 1.15 1.16z" class="C E"/><path d="M20.291 16.639a.25.25 0 0 0 .249.252.252.252 0 1 0 0-.503.25.25 0 0 0-.249.252m-2.248-.001a.25.25 0 0 0 .249.252.25.25 0 0 0 .25-.252c0-.139-.112-.252-.25-.252a.25.25 0 0 0-.249.252" fill="#1e1147" class="B"/><path d="M20.089 18.5s-.283.622-1.194.427" stroke="#9f2e00" class="E"/><path d="M17.612 20.259s1.127.663 2.516 0v1.117s-1.802.189-2.516-1.117" fill="#000" fill-opacity=".2" class="B"/></g></g><path d="M34.082 25.678s-6.767-.142-9.02 3.194L13.414 47.784s-2.455 3.458.169 5.972c0 0 1.692 1.666 3.892.691l8.484-3.925-.074 4.23h22.762v-2.336l8.152 1.993s4.443 1.024 4.592-4.127c0 0 .059-1.255-1.125-2.608L49.422 29.381s-1.452-2.905-5.006-3.302l-4.504-.402h-5.83z" fill="url(#H)" class="B"/><g opacity=".5"><mask id="C" maskUnits="userSpaceOnUse" x="25" y="21" width="25" height="19" mask-type="alpha"><path d="M49.89 21.009l-5.526 18.04L29.7 37.783l-4.664-16.774H49.89z" fill="#fff" class="B"/></mask><g mask="url(#C)" class="B"><path d="M29.7 37.783l-4.664-16.774H49.89l-5.526 18.04L29.7 37.783z" fill="url(#I)"/></g></g><path d="M41.354 51.874l5.94 2.88h2.553l.032-2.337-6.5-2.428-2.026 1.885z" fill="#493b91" class="B"/><path d="M33.809 23.684v3.149s2.571 3.186 6.353 0v-3.149h-6.353z" fill="url(#J)" class="B"/><path d="M33.758 23.625s2.203 3.696 6.405 2.063V23.33l-6.405.295z" fill="#000" fill-opacity=".2" class="B"/><path d="M31.458 16.424s-2.005-.962-2.104 1.127c0 0-.229 2.388 2.565 2.254 0 0-.032 4.543 4.963 5.14 0 0 4.767.133 5.127-5.04 0 0 2.579.21 2.626-2.241 0 0 .173-1.977-1.974-1.36l-.266-2.422-.508-3.149-4.102-.696-4.646.147-1.67 2.124.291 3.919-.303.198z" fill="url(#K)" class="B"/><path d="M31.895 17.278s-2.11-3.644-1.272-6.88c0 0 1.213-3.731 9.911-6.442l.549 1.545 1.936.03v2.127l1.155.03s.086 6.063-2.023 9.59c0 0 0-4.606-.52-5.102 0 0-1.965 1.721-3.843.322 0 0-2.023-2.362-3.756-1.603 0 0-2.427.32-2.138 6.383" fill="url(#L)" class="B"/><path d="M36.57 17.625c0 1.128-.907 2.042-2.025 2.042s-2.026-.914-2.026-2.042.907-2.043 2.026-2.043 2.025.915 2.025 2.043zm5.195 0c0 1.128-.907 2.042-2.024 2.042s-2.026-.914-2.026-2.042.907-2.043 2.026-2.043 2.024.915 2.024 2.043z" class="C D"/><path d="M33.11 14.487s1.433-.947 2.636-.125c0 0-1.291 1.034-2.636.125m5.116-.182s1.578-.67 2.616.357c0 0-1.456.783-2.616-.357" fill="#9e2d01" class="B"/><path d="M35.247 17.397a.52.52 0 0 1-.519.524c-.287 0-.52-.234-.52-.524s.233-.524.52-.524.519.235.519.524" fill="url(#M)" class="B"/><path d="M39.932 17.397a.52.52 0 0 1-.52.524c-.287 0-.521-.234-.521-.524s.233-.524.521-.524.52.235.52.524" fill="url(#N)" class="B"/><path d="M34.882 21.009s.589 1.295 2.486.89" stroke="#9f2e00" class="D"/><path d="M29.7 37.782l.79 12.174a2.04 2.04 0 0 0 2.028 1.917h8.836a2.04 2.04 0 0 0 2.026-1.885l.977-12.174c.096-1.194-.838-2.216-2.026-2.216H31.728c-1.175 0-2.105 1.001-2.028 2.184" fill="url(#O)" class="B"/><path opacity=".2" d="M43.647 43.92l12.165 3.209" stroke="#0e0f24" class="D"/><path d="M43.972 44.134l-2.16-1.42-5.4-.593v.825l3.044.826-.029.429-3.016-.841v.841l2.948.895-.014.482-2.934-1.006v.868l2.88.867-.028.454-2.852-.812v.991l7.097 3.043.463-5.849z" fill="url(#P)" class="B"/><path opacity=".2" d="M18.359 45.626l11.543-4.58" stroke="#0e0f24" class="D"/><path opacity=".5" d="M24.686 50.467L30.3 47.92l.166 2.547-5.646 4.427-.133-4.427z" fill="#000" fill-opacity=".5" class="B"/><rect x="5.882" y="8.902" width="9.804" height="5.934" rx="1" fill="#f36"/><ellipse cx="7.843" cy="11.869" rx=".98" ry=".989" fill="#fff"/><path opacity=".4" d="M10.784 11.869h1.961" stroke-width="2" stroke-linecap="round" class="C"/></g><defs><filter id="D" x="-24" y="-22" width="98" height="98" filterUnits="userSpaceOnUse" color-interpolation-filters="sRGB"><feFlood flood-opacity="0" result="A"/><feColorMatrix in="SourceAlpha" values="0 0 0 0 0 0 0 0 0 0 0 0 0 0 0 0 0 0 127 0"/><feOffset dy="2"/><feGaussianBlur stdDeviation="12"/><feColorMatrix values="0 0 0 0 0 0 0 0 0 0 0 0 0 0 0 0 0 0 0.04 0"/><feBlend in2="A"/><feBlend in="SourceGraphic"/></filter><linearGradient id="E" x1="37.988" y1="21.953" x2="37.988" y2="30.033" xlink:href="#Q"><stop stop-color="#1abef4"/><stop offset="1" stop-color="#072e3b"/></linearGradient><linearGradient id="F" x1="22.587" y1="21.283" x2="16.067" y2="22.839" xlink:href="#Q"><stop stop-color="#ff7154"/><stop offset="1" stop-color="#ffaf50"/></linearGradient><linearGradient id="G" x1="20.638" y1="23.647" x2="10.997" y2="18.405" xlink:href="#Q"><stop stop-color="#452f2f"/><stop offset="1" stop-color="#26223b"/></linearGradient><linearGradient id="H" x1="-8.245" y1="7.964" x2="-8.824" y2="61.508" xlink:href="#Q"><stop stop-color="#717171" stop-opacity=".201"/><stop offset="1" stop-color="#37eaa3"/></linearGradient><linearGradient id="I" x1="25.036" y1="21.009" x2="25.036" y2="39.049" xlink:href="#Q"><stop offset=".02" stop-color="#fff" stop-opacity=".01"/><stop offset="1" stop-color="#fff"/></linearGradient><linearGradient id="J" x1="33.295" y1="27.172" x2="38.052" y2="29.367" xlink:href="#Q"><stop stop-color="#ff7154"/><stop offset="1" stop-color="#ffaf50"/></linearGradient><linearGradient id="K" x1="28.113" y1="21.427" x2="40.56" y2="25.66" xlink:href="#Q"><stop stop-color="#ff7154"/><stop offset="1" stop-color="#ffaf50"/></linearGradient><linearGradient id="L" x1="34.009" y1="19.796" x2="46.438" y2="12.518" xlink:href="#Q"><stop stop-color="#452f2f"/><stop offset="1" stop-color="#26223b"/></linearGradient><linearGradient id="M" x1="34.479" y1="18.12" x2="35.437" y2="17.58" xlink:href="#Q"><stop stop-color="#452f2f"/><stop offset="1" stop-color="#26223b"/></linearGradient><linearGradient id="N" x1="39.163" y1="18.12" x2="40.121" y2="17.58" xlink:href="#Q"><stop stop-color="#452f2f"/><stop offset="1" stop-color="#26223b"/></linearGradient><linearGradient id="O" x1="28.573" y1="29.668" x2="28.573" y2="53.979" xlink:href="#Q"><stop stop-color="#1abef4"/><stop offset="1" stop-color="#072e3b"/></linearGradient><linearGradient id="P" x1="35.801" y1="48.128" x2="42.034" y2="50.115" xlink:href="#Q"><stop stop-color="#ff7154"/><stop offset="1" stop-color="#ffaf50"/></linearGradient><linearGradient id="Q" gradientUnits="userSpaceOnUse"/></defs></svg>