<svg xmlns="http://www.w3.org/2000/svg" xmlns:xlink="http://www.w3.org/1999/xlink" width="50" height="50" fill="none" xmlns:v="https://vecta.io/nano"><style><![CDATA[.B{fill:#e1e5f0}.C{fill:#fcd77f}.D{color-interpolation-filters:sRGB}.E{flood-opacity:0}.F{fill-rule:evenodd}.G{fill:#c9d4d9}.H{stroke:#a6bfca}.I{stroke-width:2}.J{fill:#1e1147}]]></style><g opacity=".1" filter="url(#B)" class="F"><path d="M.032 22.19c.073-7.774.109-11.661 1.645-14.627a14 14 0 0 1 6.111-6.054C10.769 0 14.656 0 22.431 0h3.62 1.52c7.774 0 11.661 0 14.642 1.508a14 14 0 0 1 6.111 6.054c1.536 2.966 1.573 6.853 1.646 14.627L50 25.442l-.023 2.377c-.076 7.772-.114 11.657-1.65 14.622a14 14 0 0 1-6.111 6.052C39.236 50 35.35 50 27.578 50h-2.632-2.524c-7.771 0-11.657 0-14.637-1.507a14 14 0 0 1-6.111-6.051C.137 39.477.098 35.591.022 27.82L0 25.559.032 22.19z" fill="#4a6d86"/></g><mask id="A" maskUnits="userSpaceOnUse" x="0" y="0" width="50" height="50" mask-type="alpha"><path d="M.032 22.19c.073-7.774.109-11.661 1.645-14.627a14 14 0 0 1 6.111-6.054C10.769 0 14.656 0 22.431 0h3.62 1.52c7.774 0 11.661 0 14.642 1.508a14 14 0 0 1 6.111 6.054c1.536 2.966 1.573 6.853 1.646 14.627L50 25.442l-.023 2.377c-.076 7.772-.114 11.657-1.65 14.622a14 14 0 0 1-6.111 6.052C39.236 50 35.35 50 27.578 50h-2.632-2.524c-7.771 0-11.657 0-14.637-1.507a14 14 0 0 1-6.111-6.051C.137 39.477.098 35.591.022 27.82L0 25.559.032 22.19z" fill="#fff" class="F"/></mask><g mask="url(#A)"><path d="M15.227 34.144c-.107-.173-.575-.351-.937-.342-.47.01-.944-.047-1.406-.008-.484.041-.813.384-1.237.477.19-.039.386-.029.571.03s.351.164.484.306c.217.237.33.57.581.767.452.364 1.212.192 1.598.628a1.44 1.44 0 0 1 .261.57c.392-.805.497-1.636.085-2.429z" fill="url(#G)"/><path d="M15.142 35.452c-.1-.406-.86-.561-1.202-.839a6.74 6.74 0 0 1-.747-.834h-.137c.184.214.355.439.512.673.208.342.452.494 1.033.721s.539 1.396.539 1.396.101-.708.001-1.116z" fill="url(#H)"/><path d="M3.715 46.469c-.033-1.586.587-3.126.617-4.712.026-1.413-.405-2.892.123-4.202.217-.538.582-1 .943-1.454l1.326-1.675c.329-.439.692-.85 1.086-1.229 1.229-1.123 2.662-1.347 4.247-.993.589.131 1.166.404 1.56.864a1.19 1.19 0 0 0 .245.25c.153.097.339.097.519.136s.355.124.501.242a1.23 1.23 0 0 1 .342.442c-.718-.365-1.309.693-1.942.912a8.02 8.02 0 0 1-2.459.421c-.575.007-1.197-.035-1.673.291-.678.463-.771 1.477-1.412 1.986-.618.49-1.56.368-2.177.859-.721.57-.678 1.657-.725 2.581-.045.612-.126 1.222-.242 1.825l-.58 3.361c-.024.135-.069.294-.199.33s-.218-.228-.083-.221" fill="url(#I)"/><path d="M10.385 33.608c1.491-.358 2.182-.77 2.826-.906a2.65 2.65 0 0 0-.315-.195 17.6 17.6 0 0 1-2.094.695c-.979.228-1.675.494-2.184 1.14s-1.374 1.443-2.6 2.231a2.89 2.89 0 0 0-.887.912 2.92 2.92 0 0 0-.412 1.208s.791-1.635 2.148-2.452 1.749-2.209 3.518-2.633z" fill="url(#J)"/><path d="M3.637 42.882c.197-1.495.504-2.992 1.138-4.355.182-.39.398-.779.736-1.042.244-.193.539-.307.802-.476.424-.273.765-.684 1.244-.855.822-.293 1.68.244 2.522.472.546.147 1.189.206 1.513.673.19.275.218.633.38.925.113.212.296.379.439.57.211.302.329.66.339 1.029s-.089.733-.284 1.046c-.671-.798-1.696-1.183-2.677-1.534l-1.752-.628c-.495-.177-.999-.356-1.524-.368-.614-.015-1.136.106-1.52.634-.261.359-.399.798-.52 1.223-.464 1.649-.75 3.343-.855 5.054-.008.143-.217-.114-.226-.124-.042-.073.063-.529.072-.633l.174-1.609z" fill="url(#K)"/><path d="M3.557 42.372H-1.08L.296 57.366h3.261 3.26l1.377-14.994H3.557z" fill="url(#L)"/><g filter="url(#C)"><path d="M30.509 3.956H11.788v25.238h18.721V3.956z" fill="#fff"/></g><path d="M28.95 12.841H13.375v.903H28.95v-.903zM29 6h-8v1h8V6z" class="B"/><path d="M28.951 9.282h-7.788v.903h7.788v-.903z" class="C"/><use xlink:href="#AX" class="B"/><use xlink:href="#AX" y="1.19" class="B"/><use xlink:href="#AX" y="2.378" class="B"/><path d="M28.95 18.541H13.375v.903H28.95v-.903z" class="B"/><use xlink:href="#AX" y="5.701" class="B"/><path d="M28.95 21.799H13.375v.134H28.95v-.134z" class="B"/><use xlink:href="#AX" y="8.078" class="B"/><use xlink:href="#AY" class="C"/><use xlink:href="#AY" class="C"/><path d="M17.375 11.046l.817.016a5.6 5.6 0 0 0-.075-.912.98.98 0 0 0-.167-.398.97.97 0 0 0-.322-.286c-.309-.137-.634-.236-.968-.293-.452-.098-.884.029-1.329.137-.237.057-.492.125-.648.33a1.26 1.26 0 0 0-.189.594l-.102.781c.734.094 2.834.032 2.982.032z" fill="url(#M)"/><path d="M14.982 8.038l-.138.409a.59.59 0 0 0 .007.428.6.6 0 0 0 .302.247 2.51 2.51 0 0 0 .678.19c.27.041.55.008.821.029s.601-.124.851-.235a.58.58 0 0 0 .268-.19c.166-.252-.061-.576-.088-.836l-.058-.673c-.001-.019-.007-.037-.019-.051s-.031-.018-.05-.019c-.82-.131-1.654-.143-2.477-.034 0 .114-.007.236-.018.355s-.079.261-.079.381z" fill="url(#N)"/><path d="M16.982 9.115a2.28 2.28 0 0 0-.92-.084c-.21.019-.546.054-.687.228-.047.068-.08.146-.096.228a5.53 5.53 0 0 0-.113.782c-.023.107-.01.218.038.316a.34.34 0 0 0 .113.096c.044.023.093.037.143.039.099.003.199-.001.297-.013.187-.01.374.017.55.081.027.012.056.018.085.017a.21.21 0 0 0 .071-.027c.218-.114.477-.099.722-.099.13 0 .271.021.314-.133a.52.52 0 0 0 .007-.187c-.017-.221-.049-.441-.096-.657-.028-.158-.088-.308-.175-.443a.54.54 0 0 0-.253-.144z" fill="url(#O)"/><path d="M16.761 5.872c-.423-.136-1.068-.082-1.334.328a1.1 1.1 0 0 0-.141.4 4.55 4.55 0 0 0-.05 1c-.011-.07-.043-.136-.091-.188-.006-.008-.013-.014-.022-.019s-.018-.007-.028-.006c-.023 0-.033.032-.037.056a.78.78 0 0 0 .011.391c.019.063.05.122.093.173a.47.47 0 0 0 .154.12c.051.024.068.102.085.154a.74.74 0 0 0 .226.342c.094.079.154.125.154.251s.029.31-.088.371a.37.37 0 0 1-.17.027l.854 1.523a9.76 9.76 0 0 0 .659-1.542.6.6 0 0 1-.173-.097c-.042-.048-.069-.106-.079-.169s-.002-.127.024-.185c.028-.031.062-.055.101-.07.096-.06.183-.133.26-.217.101-.108.173-.24.209-.383.064-.006.113-.066.14-.123.088-.141.138-.302.146-.468 0-.052-.02-.12-.072-.121-.022.001-.043.01-.059.025-.042.035-.072.083-.087.136a3.47 3.47 0 0 0-.055-1.026c-.043-.184-.136-.351-.269-.484-.104-.092-.227-.16-.36-.2z" fill="url(#P)"/><path d="M15.798 6.484c.147.187.317.353.507.496a2.53 2.53 0 0 0 .866.331c.051.007.099.03.136.067.017.026.029.055.035.086l.07.277c.09-.413.072-.843-.051-1.248a.96.96 0 0 0-.098-.237c-.046-.066-.099-.126-.157-.181a.87.87 0 0 0-.339-.245 1.18 1.18 0 0 0-.348-.021 2.07 2.07 0 0 0-.531.011.42.42 0 0 0-.185.096c-.053.047-.093.107-.117.174-.054.165.118.286.214.393z" fill="url(#Q)"/><path d="M16.131 6.641l.226.097c.298.094.59.209.873.342.045.021.084.053.113.092a.32.32 0 0 1 .036.179c-.013.179-.008.359.015.537.014.007.026-.011.03-.026.021-.07.036-.142.043-.216.008-.082 0-.21.125-.194.008.002.016.002.024 0 .017 0 .02-.027.021-.046.021-.363-.004-.728-.075-1.085-.052-.228-.113-.384-.323-.512a1.81 1.81 0 0 0-.413-.176c-.128-.045-.259-.08-.392-.104-.357-.057-.764.016-1.018.292a1.38 1.38 0 0 0-.189.342c-.102.201-.167.42-.19.644a2.2 2.2 0 0 0 0 .323c0 .075-.021.255.036.308.015.012.031.022.047.03.03.024.056.054.074.088s.03.072.033.111c.01.057.006.196.059.213.017-.092.021-.189.032-.283a.39.39 0 0 1 .033-.143.87.87 0 0 1 .071-.102c.091-.133.107-.368.131-.527a1.87 1.87 0 0 0 .014-.276.74.74 0 0 1 .011-.237c.054-.071.155.08.205.121a1.71 1.71 0 0 0 .346.205z" fill="url(#R)"/><path d="M16.378 10.796l.21-.422c-.154 0-.309-.008-.462-.015l.252.437z" fill="url(#S)"/><path d="M18.001 9.829l.016.411c.007.164.008.342-.098.469a.59.59 0 0 1-.357.161 6.5 6.5 0 0 1-1.497.031l-.967-.054c-.064-.001-.128-.011-.19-.029a.46.46 0 0 1-.158-.11c-.044-.048-.078-.104-.1-.166a1.38 1.38 0 0 1-.073-.383l-.01-.271a2.4 2.4 0 0 0-.069.342l-.102.781c.73.094 2.826.034 2.982.034l.817.016a5.6 5.6 0 0 0-.075-.912c-.025-.112-.065-.219-.12-.319h0z" fill="url(#T)"/><g filter="url(#D)"><path d="M35.98 8.176H17.327v23.836H35.98V8.176z" fill="#fff"/></g><path d="M34.451 17.008H18.876v.903H34.45v-.903zM33.788 11H26v1h7.788v-1zm-3.379 2H26v1h4.409v-1z" class="B"/><use xlink:href="#AY" x="5.502" y="4.167" class="C"/><path d="M23.027 15.215l.933.017c-.021-.319-.007-.646-.086-.956a1.03 1.03 0 0 0-.196-.422 1.02 1.02 0 0 0-.361-.291 5.02 5.02 0 0 0-1.102-.306c-.522-.103-1.007.03-1.516.143-.269.059-.56.131-.737.342-.145.173-.18.403-.216.619l-.113.815c.832.099 3.225.038 3.395.038z" fill="url(#U)"/><path d="M20.848 13.649a4.75 4.75 0 0 0-.143.675 1.09 1.09 0 0 1 .421-.198 2.57 2.57 0 0 1 .363-.014c.018-.002.035.001.052.008s.023.016.032.027c.084.105.139.237.249.313l.247-.261c.02-.023.043-.041.07-.055a.59.59 0 0 1 .215-.009.94.94 0 0 1 .211.014c.085.016.339.088.346.203-.027-.22-.069-.437-.125-.651-.027-.147-.082-.288-.162-.414a.47.47 0 0 0-.321-.185c-.212-.052-.43-.073-.648-.061a1.16 1.16 0 0 0-.547.161c-.146.089-.211.287-.258.448z" fill="url(#V)"/><path d="M22.262 10.041c-.423-.136-1.068-.082-1.334.329a1.12 1.12 0 0 0-.141.4c-.053.33-.07.666-.05 1-.01-.07-.041-.136-.089-.188-.006-.008-.014-.014-.022-.019s-.019-.006-.028-.006c-.023 0-.032.032-.036.056a.78.78 0 0 0 .01.391c.019.063.051.122.093.172s.095.092.153.121c.052.024.068.101.085.154a.74.74 0 0 0 .226.342c.052.036.098.081.136.132.016.029.027.061.032.095.013.076.01.154-.009.228-.021.06-.093.1-.101.164-.002.022.002.044.01.064.12.354.42.59.574.92.01.027.027.05.049.068.196-.357.432-.696.565-1.083-.037-.061-.07-.124-.099-.189a.37.37 0 0 1 .019-.221.25.25 0 0 1 .099-.07c.097-.06.184-.133.261-.217.1-.108.171-.24.208-.383.064 0 .113-.066.14-.123a.96.96 0 0 0 .146-.469c0-.051-.02-.114-.071-.114-.022.001-.043.01-.059.025-.042.035-.073.082-.088.136a3.44 3.44 0 0 0-.055-1.027c-.042-.184-.135-.351-.268-.483a.95.95 0 0 0-.355-.205h0z" fill="url(#W)"/><path d="M22.941 11.58c.027-.287.008-.576-.057-.856-.042-.184-.135-.351-.268-.484a.95.95 0 0 0-.355-.2c-.392-.127-.976-.088-1.27.245l.017.018a3.31 3.31 0 0 0 .226.266c.279.253.647.382 1.011.472.135.033.284.07.363.185a1.35 1.35 0 0 1 .098.243c.033.078.226.239.226.313l.008-.202z" fill="url(#X)"/><path d="M21.663 10.741l.557.157.288.081c.049.014.209.025.226.076.003.016.003.032 0 .048-.008.148.015.297.068.436.024.056.044.113.061.171.025.114 0 .228.028.342.014.008.026-.01.03-.025.022-.07.036-.142.043-.216 0-.052.011-.104.033-.151.068-.114.132-.144.147-.292.012-.111.012-.223 0-.334.04-.059.065-.125.076-.195a.48.48 0 0 0-.015-.209c-.031-.135-.088-.262-.168-.374s-.181-.208-.297-.281a1.84 1.84 0 0 0-.413-.177c-.128-.045-.259-.079-.392-.103a1.44 1.44 0 0 0-.875.137c-.072.031-.134.081-.18.145-.04.075-.054.16-.042.244.005.026.005.052 0 .078a.24.24 0 0 1-.08.099.88.88 0 0 0-.22.57c-.008.107-.008.215 0 .322 0 .076-.021.257.036.309.015.011.031.021.047.03.031.024.056.053.075.088a.28.28 0 0 1 .033.111c.01.057.006.196.059.213.017-.092.021-.189.032-.283.002-.049.013-.098.033-.143.019-.037.049-.067.071-.101.091-.133.113-.368.131-.527a1.73 1.73 0 0 0 .014-.276c0-.05.027-.27-.006-.303l.147.146c.105.105.315.149.453.187z" fill="url(#Y)"/><path d="M23.027 15.215l.933.017c-.021-.319-.007-.646-.086-.956a1.08 1.08 0 0 0-.346-.579c-.008.114 0 .238 0 .355a3.07 3.07 0 0 1-.034.558c-.008.103-.043.203-.101.288-.097.126-.267.162-.422.186a7.72 7.72 0 0 1-2.68-.059c-.062-.005-.12-.032-.165-.076-.026-.037-.042-.08-.047-.124l-.159-.788c-.014-.066-.023-.134-.025-.202-.08.166-.13.346-.146.53l-.113.815c.829.097 3.222.035 3.391.035z" fill="url(#Z)"/><path d="M22.872 10.606c.044.008.09.005.133-.009.026-.013.048-.033.065-.057s.027-.052.03-.081c.006-.038.006-.076 0-.114-.086-.149-.207-.275-.353-.366a1.84 1.84 0 0 0-.413-.177c-.128-.045-.259-.079-.392-.103-.299-.047-.605.001-.875.137a.47.47 0 0 0-.164.121c.007.022.017.043.029.063.184.286.618.375.924.436l1.015.151z" fill="url(#a)"/><path d="M21.611 15.037l-.065.202h.505l-.113-.57a.28.28 0 0 1-.006-.114c.01-.033.027-.064.05-.089.075-.098.173-.196.167-.32a2.55 2.55 0 0 1-.322.014c-.113 0-.226-.021-.339-.021-.036 0 .069.175.075.185a.76.76 0 0 1 .139.259.52.52 0 0 1-.024.195l-.068.26z" class="C"/><path d="M34.451 19.078H18.876v.133H34.45v-.133zm.124.922H19v.133h15.575V20zm-.124 1.456H18.876v.134H34.45v-.134zm0 1.253H18.876v.903H34.45v-.903zm0 2.069H18.876v.133H34.45v-.133zM34.575 26H19v.133h15.575V26zm-.124 1.156H18.876v.1H34.45v-.1z" class="B"/><path d="M35.918 15.578c1.776 0 3.216-1.453 3.216-3.245s-1.44-3.245-3.216-3.245-3.216 1.453-3.216 3.245 1.44 3.245 3.216 3.245z" fill="url(#b)"/><path d="M35.685 14L34 12.236l.552-.577 1.133 1.187L37.448 11l.552.578L35.685 14z" fill="url(#c)"/><path d="M6.534 46.796l-.077 5.464h.737c.037-.026.542-3.675.782-5.464H6.534z" fill="url(#d)"/><path d="M1.4 46.796L.697 52.26h.737c.04-.026.963-3.675 1.409-5.464H1.4z" fill="url(#e)"/><path d="M8.94 46.842l.077 5.464H8.28c-.037-.026-.542-3.675-.782-5.464H8.94z" fill="url(#f)"/><path d="M14.074 46.842l.703 5.464h-.737c-.04-.026-.961-3.675-1.413-5.464h1.447z" fill="url(#g)"/><path d="M14.036 47.367l-.341-.1c-.816-.243-1.84-.59-2.601-1.441l-.001-.001c-.609-.683-.898-1.542-1.108-2.177v-.001l-1.301-4.675m5.352 8.396L-1.992 33.546c.293-1.027 1.298-1.47 2.844-1.669h0c2.014-.26 3.991-.008 5.302 1.118l.652-.758-.652.758c.735.632 1.269 1.548 1.649 2.591.314.86.512 1.747.727 2.706l.154.679m5.352 8.396c-2.827.302-5.758.206-8.698.111l-1.678-.052c-.92-.027-1.704-.062-2.421-.282-.7-.214-1.258-.606-1.536-1.098a4.16 4.16 0 0 1-.355-1.031l-.004-.018-.004-.018a55.24 55.24 0 0 1-1.429-9.377l16.125 11.765zm-5.352-8.396l.974-.224-.974.224zm7.142 9.086zM-2.09 35.602c-.053-.807-.069-1.469.098-2.055l-.098 2.055z" class="G H I"/><path d="M14.083 47.341c-2.532.27-5.156.224-7.801.138a2.57 2.57 0 0 0-.884-.822l-.016-.009-.017-.009-1.04-.483-.434-.194c-.451-.208-.837-.411-1.178-.673-.902-.692-1.34-1.908-1.8-3.416h0l-1.863-6.1v-.001c-.375-1.227-.636-2.234-.44-3.121.501-.433 1.302-.671 2.291-.799 2.014-.26 3.991-.008 5.301 1.118l7.881 14.372zm0 0l-.34-.1c-.816-.243-1.84-.59-2.601-1.441l-.001-.001c-.609-.683-.898-1.542-1.108-2.177v-.001l-1.301-4.675 5.351 8.396zm-5.505-9.075l-.727-2.706c-.38-1.042-.914-1.958-1.649-2.59l2.376 5.297zm0 0l.154.679-.154-.679zm-9.926-5.78l-.568-.15-.397-.113.39.107.575.157zm17.225 15.548z" class="G H I"/><path d="M23.626 43.453a2.2 2.2 0 0 0-.579-.791c-.791-.691-2.101-.74-3.27-.741-2.6 0-5.195-.03-7.791-.026-.948 0-1.862-.041-2.811.01-.113.006-.293 1.73-.3 1.883-.028.709.093 1.437.565 2.053.552.725 1.513 1.203 2.522 1.462s2.079.322 3.136.383l2.892.194c.028-.004.056-.003.083.004s.053.02.075.037c.014.021.021.047.019.073l.15 4.241 4.835-.011.686-3.915.205-2.9c.046-.739-.123-1.274-.417-1.955z" fill="url(#h)"/><path d="M22.29 45.997c-1.485.86-1.947 4.294-2.089 6.256l2.949-.029.686-3.915.205-2.9c.05-.739-.12-1.274-.414-1.955a2.2 2.2 0 0 0-.579-.791c-.595-.521-1.488-.678-2.393-.723-.763.114-1.785.415-1.98 1.269-.321 1.394-.41 5.029.615 3.841s5.111-2.267 3-1.053z" fill="url(#i)"/><path d="M16.873 43.453a2.19 2.19 0 0 0-.58-.791c-.791-.691-2.101-.74-3.269-.741-2.6 0-5.194-.03-7.792-.026-.947 0-1.862-.041-2.811.01-.113.006-.293 1.73-.298 1.883-.028.709.093 1.437.565 2.053.552.725 1.511 1.203 2.521 1.462s2.079.322 3.137.383l2.892.194c.028-.004.056-.003.083.004s.052.02.074.037c.014.021.021.047.019.073l.151 4.241 4.835-.011.686-3.915.204-2.9c.047-.739-.123-1.274-.416-1.955z" fill="url(#j)"/><path d="M12.423 49.977c-.226-2.266-.312-1.642 1.071-2.452s-.269-.428-1.383-.476-1.558.026-4.582-.874-2.687-4.237-2.687-4.237l.043-.046c-.825-.007-1.631-.034-2.466.011-.113.006-.293 1.73-.298 1.883-.028.709.093 1.437.565 2.053.552.725 1.511 1.203 2.521 1.462s2.079.322 3.137.383l2.892.194c.028-.004.056-.003.083.004s.052.02.074.037c.014.021.021.047.019.073l.151 4.241 1.031.008-.172-2.266z" fill="url(#k)"/><path d="M5.176 42.598l.345-.17c1.156-.52 2.293-.553 3.532-.555l5.561.017-.139-1.904c.052-.12 2.175.136 2.409.151l2.702.156a.37.37 0 0 0 .15-.017.35.35 0 0 0 .122-.106 2.73 2.73 0 0 0 .544-1.141c.09-.418.081-.852-.027-1.266-.348-1.293-2.325-.746-3.187-1.575-.068-.065-.113-.152-.18-.217-.031-.035-.073-.06-.119-.069s-.094-.003-.136.018l-.202-.88c-.128-.49-.191-1-.303-1.496-.253-1.085-.578-2.152-.973-3.193-.582-1.566-1.556-2.503-3.192-2.796l-1.745-.314c-1.493-.268-3.284-.481-4.793-.286-.864.114-1.724.431-2.357 1.035-.459.438-.778 1.001-1.084 1.559-.885 1.616-1.725 3.267-2.32 5.018-.176.527 3.086 1.647 3.377 1.739l-.442 2.776c-.138.87-.185 2.006-.539 2.808-.102.228-.252.431-.358.656-.096.221-.172.45-.226.684-.092.356-.183.725-.113 1.086s.339.712.701.741c.478-.779 1.161-1.294 1.915-1.791l1.08-.668z" fill="url(#l)"/><path d="M20.296 38.873c-1.276-.168-2.503-.391-2.69-.645-.328-.444-.439-1.953-.66-2.298a.21.21 0 0 0-.044-.018h-.007c-.015-.004-.032-.007-.047-.008s-.028-.002-.042 0h-.011c-.014.004-.027.011-.04.018-.373.477-.094 2.304-.579 2.005s-1.275-1.92-1.445-2.944l-.809-4.498c-.102.257.266 2.923.315 4.498l.226 5.115v-.038-.03c-.001-.013-.001-.018 0-.024v-.017c.052-.12 2.172.136 2.408.151l1.781.114.91.047c.053-.011.103-.034.147-.065s.081-.072.109-.119c.079-.146.041-.328.086-.488a1.24 1.24 0 0 1 .169-.308 1.97 1.97 0 0 0 .223-.447h0z" fill="url(#m)"/><path d="M16.391 30.297l-3.765 9.262h7.894l3.764-9.262h-7.894z" fill="url(#n)"/><path opacity=".4" d="M16.49 30.602l-3.766 9.262h7.894l3.766-9.262H16.49z" class="G"/><path d="M5.108 32.163c-.044-.333-.113-.695-.357-.918-.034-.035-.078-.058-.125-.066-.131-.009-.189.163-.202.295-.127 1.155-.185 2.458-.529 3.563-.009.04-.029.077-.057.106-.039.025-.084.037-.13.034l-1.541.06c-.029.042.027.092.075.114.482.202.982.295 1.445.526-.191.506-.61.948-.699 1.502l-.27 1.699c-.138.87-.185 2.006-.539 2.808-.102.228-.252.431-.358.656a3.9 3.9 0 0 0-.226.684c-.092.356-.183.725-.113 1.086s.339.712.701.741c.411-.671.974-1.141 1.603-1.581a12.97 12.97 0 0 1 .226-1.483c.148-.634.399-1.24.601-1.858.831-2.552.852-5.31.496-7.97z" fill="url(#o)"/><path d="M14.474 39.086a2.43 2.43 0 0 0 .226-.275c.043-.07.097-.132.159-.184.065-.042.137-.071.213-.087l.955-.262c.339-.093.691-.178.838-.542.019-.047.027-.114-.018-.137-.014-.006-.029-.009-.044-.008l-.253-.013a1.38 1.38 0 0 0 .622-.364c.024-.021.041-.048.052-.078.004-.031-.003-.062-.019-.088a.13.13 0 0 0-.07-.055c-.058-.017-.12-.02-.18-.008.139-.076.262-.177.363-.299.015-.018.024-.039.029-.061s.004-.046-.002-.068a.16.16 0 0 0-.095-.072l-1.146-.384c-.191-.085-.41-.058-.618-.049a3.45 3.45 0 0 1-.651-.034l.41-.219a1.29 1.29 0 0 1 .226-.088c.331-.083.678.075 1.029-.025.111-.026.21-.087.285-.173.019-.02.031-.045.036-.072s.002-.055-.008-.08c-.025-.03-.059-.051-.097-.059l-.773-.246c-.067-.025-.137-.04-.208-.046-.059 0-.117.007-.174.019-.62.114-1.233.213-1.829.427a1.8 1.8 0 0 0-.419.194c-.131.1-.25.215-.356.342-.444.483-.956 1.062-1.518 1.408-.465.286-1.123.331-1.655.317-1.204-.032-2.353-.443-3.514-.712h-.02c-.274.358-.473.769-.583 1.208-.099.469-.028.995.278 1.361a1.34 1.34 0 0 0 .468.352c.13.062.432 0 .578 0h.621l1.062-.014c.8-.068 1.606-.054 2.403.043.409.065.82.107 1.233.127s.828-.072 1.196-.267a4.13 4.13 0 0 0 .971-.732h0z" fill="url(#p)"/><path d="M-.022 39.315c.07.029.142.051.215.073 2.58.778 5.313.832 8.003.882.488.008 1.004.01 1.429-.228-.373-.395-.324-1.026-.189-1.552.095-.373.329-.814.71-.778a1.2 1.2 0 0 0-.545-.228l-6.085-1.625-1.846-.57c-.636-.181-1.256-.415-1.854-.7-.188.417-.321.857-.395 1.309-.123.998-.305 1.924.088 2.9.05.144.131.275.237.383a.78.78 0 0 0 .232.135h0z" fill="url(#q)"/><path d="M13.315 34.277c.046-.058.081-.123.103-.194.012-.097 0-.195-.036-.285-.113-.365-.189-.765-.349-1.11l-.47-1.013c-.189-.405.304-.937.51-1.294a2.06 2.06 0 0 1 .423-.57c-.153-.57-.175-1.107-.381-1.656l-.14-.354c-.288-.113-.586-.196-.891-.249l-1.747-.312c-1.204-.216-2.6-.396-3.885-.356l-.095.204-.644 1.399-.3.651a.66.66 0 0 0-.087.35c.033.244.703.52.894.643l1.244.798c.289.185.567.387.833.604.021.014.037.034.045.058.001.022-.004.044-.015.063l-1.017 2.208c-.217.512.097.656.497.958.365.272.747.52 1.143.744a26.08 26.08 0 0 0 2.539 1.202c.674-.758 1.251-1.651 1.827-2.491z" fill="url(#r)"/><path d="M7.614 26.898a8.95 8.95 0 0 0 .646 1.825c.894 1.914 3.229 8.037 3.229 8.037l.536-6.317c.116-.961.138-1.93.068-2.896h-.01l-1.745-.307c-.9-.168-1.809-.282-2.722-.342z" fill="url(#s)"/><path d="M9.949 32.804l1.54 3.963.309-4.127-.529-1.674a1.15 1.15 0 0 1-.056-.449c.024-.162.128-.274.184-.419a1.45 1.45 0 0 0 .074-.79c-.007-.073-.039-.142-.091-.194a1.24 1.24 0 0 0-.33.198.5.5 0 0 0-.103.094c-.071.097-.079.196-.191.252a.51.51 0 0 1-.41.031 1.02 1.02 0 0 1-.091-.052 3.14 3.14 0 0 0-.484-.228c-.042-.016-.098-.025-.123.012-.008.017-.013.035-.012.054 0 .147-.02.313.063.437a2.46 2.46 0 0 0 .322.331c.314.316.339.496.242.947l-.312 1.616z" fill="url(#t)"/><path d="M9.839 37.543c-.754.38-.98 1.548-.98 1.548s0 .16-1.844.16-5.373-.448-6.037-1.475c-.324-.504-.365-1.127-.288-1.711l.113-.538c.208-.884.161-1.711.452-2.586l1.017-2.834c.3-.798.672-1.567 1.111-2.297l-.198.173c-.459.438-.778 1.001-1.084 1.559-.885 1.616-1.725 3.268-2.32 5.018a.15.15 0 0 0 0 .095c-.173.394-.295.809-.363 1.234-.123.998-.305 1.924.088 2.9.05.144.131.275.237.383a.78.78 0 0 0 .232.141c.07.029.142.051.215.073 2.58.778 5.313.832 8.003.882.488.008 1.004.01 1.429-.228-.373-.395-.324-1.026-.189-1.552.095-.373.329-.814.71-.778a.84.84 0 0 0-.305-.168h0z" fill="url(#u)"/><g filter="url(#E)"><path d="M12.303 27.659c-.113-.373-.275-.72-.533-.95-.226-.182-.483-.32-.758-.409a5.49 5.49 0 0 0-1.61-.39c-.538-.03-1.166.081-1.614.395-.634.441-.652 1.314-.508 2.01a7.83 7.83 0 0 0 .557 1.55l.728 1.653c.156-.288.327-.538.504-.811l.489-.693c.103-.133.255-.389.424-.451.127-.046.182.039.292.093.084.043.178.062.273.055s.185-.039.262-.093c.032-.025.063-.052.093-.081.113-.114.162-.185.32-.185.097.042.177.117.226.211.113 0 .551.843.678.966a3.57 3.57 0 0 1 .589.804 10.54 10.54 0 0 0-.155-2.487c-.063-.4-.149-.796-.258-1.186z" fill="url(#v)"/></g><g filter="url(#F)"><path d="M12.171 27.863c.03-.084.053-.17.07-.258a1.71 1.71 0 0 0-.408-.606 2.38 2.38 0 0 0-.758-.41 5.49 5.49 0 0 0-1.61-.39c-.538-.03-1.166.081-1.614.395a1.22 1.22 0 0 0-.358.387c.051.172.131.334.236.478.171.242.385.447.565.679s.354.521.592.721.54.305.824.432c.226.104.573.412.815.432s.46-.3.615-.446c.427-.4.834-.852 1.031-1.414z" fill="url(#w)"/></g><path d="M15.582 21.953c.168-.968.2-1.947-.205-2.822-1.107-2.395-4.409-2.851-6.207-.963-.875.92-1.124 2.281-1.115 3.556l.149 2.631c.019.502.038 1.04-.079 1.531-.113.473-.103.974-.125 1.464-.007.149 2.182 2.061 2.713 2.467l.773-1.778c.218-.482.284-.972.452-1.464a.41.41 0 0 1 .138-.228.39.39 0 0 1 .198-.043c1.004-.044 1.828-.31 2.374-1.233.339-.57.502-1.23.66-1.877l.274-1.241z" fill="url(#x)"/><path d="M14.303 17.318a14.61 14.61 0 0 0-2.306-.366c-.258-.019-.534-.029-.756.103-.916.536.549 1.007.86 1.244.587.451 1.051 1.052 1.687 1.438.321.184.663.33 1.017.435a4.5 4.5 0 0 0 .886.204c.027-.591-.083-1.179-.321-1.72-.243-.527-.609-.986-1.067-1.338z" fill="url(#y)"/><path d="M10.011 20.867a.8.8 0 0 1 .209-.373c.116-.085.238-.162.365-.228.378-.257.468-.782.615-1.19.061-.169.241-.892.474-.912.339-.027.652.138.948.297.979.523 2.043 1.044 3.142.906.425-.054.886-.255 1.017-.666.045-.154.054-.317.025-.476a1.75 1.75 0 0 0-.321-.762 1.73 1.73 0 0 0-.633-.526c-.331-.157-.703-.202-1.053-.312-.986-.312-1.795-1.147-2.826-1.243-1.164-.114-2.624.755-3.223 1.755-.653 1.095-1.889.525-2.235 2.076-.207.924.06 1.738.462 2.561.282.585.494 1.202.631 1.837.027.123.292 1.545.551 1.394a.16.16 0 0 0 .057-.072c.255-.483.702-1.13.597-1.711a1.46 1.46 0 0 0-.184-.436c-.241-.437-.469-.926-.38-1.418a.84.84 0 0 1 .255-.486c.069-.064.153-.108.244-.128a.52.52 0 0 1 .275.014c.373.145.389.684.686.958.205-.222.215-.565.302-.859z" fill="url(#z)"/><path d="M10.143 24.301c-.046-.099-.197-.612-.362-.269a.48.48 0 0 0-.021.244 5.84 5.84 0 0 0 .251 1.368 2.19 2.19 0 0 0 .799 1.113 3.29 3.29 0 0 0 .817.356l.03.016.289-1.026a.41.41 0 0 1 .138-.228l-1.173-.72c-.326-.212-.591-.507-.769-.854h0z" fill="#000" fill-opacity=".2"/><path d="M10.496 18.026c-.656.952-1.744 1.762-2.865 1.768-.648 0-.915-.48-1.026-.89-.037.1-.067.203-.089.307-.207.924.06 1.738.462 2.561.282.585.494 1.202.631 1.837.027.123.292 1.545.551 1.394a.16.16 0 0 0 .057-.072c.255-.483.702-1.13.597-1.711a1.46 1.46 0 0 0-.184-.436c-.241-.437-.469-.926-.38-1.418a.84.84 0 0 1 .255-.486c.069-.064.153-.108.244-.128a.52.52 0 0 1 .275.014c.373.145.389.684.686.958.202-.228.215-.57.302-.863a.8.8 0 0 1 .209-.373c.116-.085.238-.162.365-.228.378-.257.468-.782.615-1.19.07-.254.164-.501.28-.738-.3-.446-.669-.766-.985-.308z" fill="url(#AA)"/><path d="M8.937 22.61c.042.068.1.124.17.163.035.018.075.024.114.015s.073-.031.096-.063c.025-.061.025-.13 0-.191l-.208-.835c-.07-.284-.347-.586-.536-.206-.162.332.183.863.364 1.116z" fill="url(#AB)"/><path d="M12.745 23.738s.023.982 1.33.982" stroke="#9f2e00" stroke-width=".3"/><path d="M14.639 21.172c-.023.183.105.35.286.373s.348-.106.371-.289-.105-.35-.287-.373a.33.33 0 0 0-.37.289m-1.945-.252c-.023.183.105.35.286.373s.348-.106.371-.289-.105-.35-.287-.373a.33.33 0 0 0-.37.289" class="F J"/><path d="M11.863 19.685s1.153-.323 1.781.482c0 0-1.078.413-1.781-.482m4.73.611s-1.035-.606-1.844.013c0 0 .94.674 1.844-.013" fill="#9e2d01" class="F"/><path d="M11.797 32.639l-.529-1.674a1.15 1.15 0 0 1-.056-.449c.003-.022.008-.044.015-.065l-.086-.327c-.01-.088-.052-.17-.119-.228-.045-.024-.097-.033-.147-.024s-.096.035-.13.074c-.066.078-.112.171-.133.271-.1.369-.172.744-.216 1.123-.067.503-.193.87-.33 1.782l1.423 3.644c.034-.022.2-2.873.309-4.127z" fill="url(#AC)"/><path d="M22.214 35.609c-.121-.165-.383-.172-.565-.218l-.823-.205c-.01-.007-.022-.011-.035-.011s-.024.004-.035.01-.018.017-.023.028-.006.024-.004.036a.53.53 0 0 0-.01.21c.011.07.035.137.072.197a.52.52 0 0 0 .143.153c.058.041.123.069.191.083l.869.37c.027.011-.043.159-.054.18.07-.07.179-.108.241-.185.074-.088.116-.198.12-.314a.55.55 0 0 0-.088-.335h0z" fill="url(#AD)"/><path d="M21.503 36.413c-.302.013-.603.009-.904-.01-.018-.003-.037-.001-.053.007-.017.013-.028.032-.032.053-.079.277.097.374.252.54a.87.87 0 0 0-.194.079c-.019.123-.034.266.05.358.043.042.095.073.151.091l.276.114c-.133-.003-.265-.026-.391-.067a.38.38 0 0 0 .017.368c.105.165.539.382.731.313.029-.014.054-.034.073-.059s.033-.054.04-.086c.018-.063.021-.128.043-.188.059-.112.13-.217.211-.312.097-.155 0-.399.12-.502.174-.147.327-.216.246-.494-.014-.05-.039-.096-.075-.134a.31.31 0 0 0-.129-.082c-.058-.013-.118-.015-.176-.007l-.257.018z" fill="url(#AE)"/><path d="M31.732 32.919c-.053-.487.023-1.044-.13-1.515-.14-.436-.26-.831-.256-1.302a1.05 1.05 0 0 0-.028-.332c-.015-.054-.044-.103-.085-.14a.29.29 0 0 0-.147-.072c-.166-.012-.278.164-.346.317a1.49 1.49 0 0 0-.12.35c-.018.181-.011.363.019.542.028.289.021.58-.021.867-.003.05-.022.098-.054.137-.099.095-.226-.148-.284-.21-.166-.197-.288-.427-.436-.636-.235-.333-.454-.678-.655-1.033l-.503-.984c-.132-.297-.268-.545-.609-.634-.083-.022-.198-.01-.215.074-.003.034.004.069.019.099.113.308.031.484-.078.778a1.09 1.09 0 0 0-.049.583c.042.137.065.279.067.422-.035.146-.088.287-.158.42-.132.357-.015.753 0 1.133.025.497-.036.968.187 1.434a4.69 4.69 0 0 0 .59.87c.113.156.246.295.397.414.339.243.791.269 1.131.503.271.186.444.482.643.747s.459.519.791.552c.156.01.311-.02.452-.087a1.51 1.51 0 0 0 .601-.533 1.53 1.53 0 0 0 .245-.768.73.73 0 0 0-.024-.292c-.028-.095-.074-.183-.137-.259-.206-.21-.419-.29-.565-.57a2.41 2.41 0 0 1-.242-.872h0z" fill="url(#AF)"/><path d="M34.64 43.453a2.2 2.2 0 0 1 .579-.791c.791-.691 2.103-.74 3.27-.741l7.792-.026 2.811.01c.107.006.292 1.73.298 1.883.028.709-.093 1.437-.565 2.053-.552.725-1.511 1.203-2.522 1.462s-2.079.322-3.136.383l-2.892.194c-.028-.004-.056-.003-.083.004s-.052.02-.074.037c-.015.021-.022.047-.02.073l-.15 4.241c-1.603 0-3.246.062-4.835-.011l-.686-3.915-.205-2.9c-.046-.739.123-1.274.417-1.955z" fill="url(#AG)"/><path d="M39.088 49.977c.226-2.266.312-1.642-1.069-2.452s.268-.428 1.382-.476 1.559.026 4.582-.874 2.688-4.237 2.688-4.237l-.043-.046 2.465.011c.107.006.292 1.73.298 1.883.028.709-.093 1.437-.565 2.053-.552.725-1.511 1.203-2.522 1.462s-2.079.322-3.136.383l-2.892.194c-.028-.004-.056-.003-.083.004s-.052.02-.074.037c-.015.021-.022.047-.02.073l-.15 4.241-1.032.008.172-2.266z" fill="url(#AH)"/><path d="M30.326 43.453a2.2 2.2 0 0 1 .579-.791c.791-.691 2.102-.74 3.271-.741l7.791-.026 2.812.01c.113.006.293 1.73.3 1.883.028.709-.093 1.437-.565 2.053-.552.725-1.513 1.203-2.522 1.462s-2.079.322-3.136.383l-2.892.194c-.028-.004-.056-.003-.083.004s-.053.02-.075.037c-.014.021-.021.047-.019.073l-.15 4.241c-1.604 0-3.246.062-4.835-.011l-.686-3.915-.205-2.9c-.046-.739.128-1.274.417-1.955z" fill="url(#AI)"/><path d="M31.662 45.997c1.486.854 1.947 4.294 2.09 6.256-.989.011-1.979.016-2.949-.029l-.686-3.915-.205-2.9c-.05-.739.12-1.274.414-1.955a2.2 2.2 0 0 1 .579-.791c.595-.521 1.488-.678 2.393-.723.763.114 1.785.415 1.981 1.269.321 1.394.41 5.029-.615 3.841s-5.112-2.267-3.001-1.053z" fill="url(#AJ)"/><path d="M46.161 18.744c-.831-1.802-3.082-2.519-5.038-2.299-.959.107-1.994.468-2.445 1.326-.226.431-.274.931-.318 1.415-.133 1.504-.395 3.212.067 4.684.254.814.849 1.574 1.671 1.783.275.07.611.107.738.363a.87.87 0 0 1 .063.334c.024.375.089.747.192 1.109.019.09.057.175.113.247a.62.62 0 0 0 .316.159c1.088.283 2.233.252 3.304-.089.067-.014.126-.051.168-.105a.3.3 0 0 0 .023-.177c-.05-.615.017-1.237 0-1.861-.009-.105.002-.211.029-.312.054-.123.131-.233.226-.326.777-.885.801-1.851.904-2.946.113-1.193.339-2.307-.127-3.467" fill="url(#AK)"/><path d="M37.859 19.395c.267.252.702.293.913.594.383.544-.216 1.544.361 1.874.016-.317.038-.655.226-.912s.603-.363.816-.129c.131.145.141.361.137.559-.025.959-.138 1.792.174 2.751.581.696.645.527 1.277.858.513.268 1.111.307 1.696.322.904.023 2.102.16 2.487-.717.41-.939.753-.944 1.072-1.923.297-.912.487-2.167-.044-3.029-.13-.176-.243-.364-.339-.561-.096-.25-.084-.526-.103-.793-.103-1.412-1.261-2.673-2.647-2.885-.725-.114-1.46.036-2.179.185-.603.124-1.265.354-1.882.333-.528-.018-1.102-.165-1.583.162-.373.253-.505.742-.549 1.194-.075.7-.421 1.567.167 2.119z" fill="url(#AL)"/><path d="M38.233 16.084c.482-.327 1.056-.18 1.583-.162.617.021 1.28-.209 1.882-.333.719-.148 1.455-.295 2.179-.185a2.72 2.72 0 0 1 .331.074c-1.131.361-1.835 1.468-3.948 1.461-2.526-.008-1.978.195-2.098 1.231-.054.419-.156.831-.304 1.226-.586-.552-.242-1.419-.175-2.117.039-.453.176-.942.549-1.195z" fill="url(#AM)"/><path d="M46.202 28.145c-.373.076-1.147.142-1.256.172-.479.133-.904.342-1.421.404-1.154.132-2.343.031-3.419-.436a1.93 1.93 0 0 1 .162-.839c.116-.264.289-.498.507-.684.695-.591 1.76-.631 2.623-.658.749-.024 1.506-.083 2.183.327.273.171.495.413.641.702s.211.612.188.936c-.007.026-.086.051-.208.076z" class="J"/><path d="M31.946 38.125l.006.008c.473.584.953 1.177 1.561 1.616s1.37.715 2.106.584c.652-.114 1.085-.465 1.547-.912-.04 1.162-.217 2.672 1.304 2.865 2.392.375 4.818.583 7.235.477 1.033-.046 2.374 0 3.355-.366.904-.342.358-1.857.285-2.519-.148-1.212-.2-2.434-.156-3.655l.253-2.527c.113-.952.226-1.916.101-2.867-.08-.733-.344-1.434-.765-2.037-.452-.622-1.172-.912-1.882-1.161-1.608-.551-3.34-.657-5.021-.503-1.498.137-3.216.479-4.534 1.245a3.21 3.21 0 0 0-1.212 1.203c-.466.849-.685 1.8-.943 2.727l-.771 2.721a2.39 2.39 0 0 1-.565-.304c-.524-.36-.974-.835-1.541-1.126-.053-.034-.116-.05-.179-.048a.35.35 0 0 0-.127.056 3.63 3.63 0 0 0-1.52 2.02.99.99 0 0 0-.006.632 1.18 1.18 0 0 0 .19.287l1.279 1.585z" fill="url(#AN)"/><path d="M31.943 34.64c.581.293 1.599 2.015 2.035 2.126s.53-1.996.53-1.996a1.21 1.21 0 0 1-.09.255 2.39 2.39 0 0 1-.565-.305c-.525-.36-.974-.835-1.541-1.126a.32.32 0 0 0-.179-.048.35.35 0 0 0-.127.056 3.58 3.58 0 0 0-.886.798 2.57 2.57 0 0 1 .823.238h0zm6.758 7.682c-.283-.956-.4-2.633-.217-3.687.254-1.467.399-4.472.254-5.829s-.945-3.702-1.074-3.482.638 4.399.5 5.834-.589 3.734-.999 4.265c-.04 1.162-.217 2.672 1.304 2.865l.232.034z" fill-opacity=".2" class="J"/><path d="M41.293 46.796l.077 5.464h-.737c-.037-.026-.541-3.675-.782-5.464h1.442z" fill="url(#AO)"/><path d="M46.428 46.796l.703 5.464h-.737c-.04-.026-.963-3.675-1.41-5.464h1.444z" fill="url(#AP)"/><path d="M38.887 46.842l-.077 5.464h.737c.037-.026.541-3.675.782-5.464h-1.442z" fill="url(#AQ)"/><path d="M33.753 46.842l-.703 5.464h.737c.04-.026.963-3.675 1.409-5.464h-1.443z" fill="url(#AR)"/><path d="M32.002 48.055zm1.79-.688l.342-.1c.817-.243 1.842-.59 2.601-1.442.609-.683.897-1.543 1.107-2.175l.001-.004 1.3-4.674v-.001l.147-.652.733-2.733c.38-1.042.913-1.958 1.649-2.591 1.31-1.126 3.288-1.378 5.302-1.118h0c1.546.2 2.551.642 2.844 1.67h0l.002.006c.17.581.15 1.234.096 2.049-.207 3.162-.685 6.299-1.429 9.378l-.004.018-.004.018c-.073.358-.192.705-.355 1.031-.278.492-.836.884-1.536 1.098-.717.219-1.502.255-2.421.282l-1.679.052c-2.94.096-5.87.191-8.697-.111z" class="G H I"/><path d="M32.304 40.648h-.848v11.611h.848V40.648z" fill="url(#AS)"/><path d="M.979 40.648H.131v11.611h.848V40.648z" fill="url(#AT)"/><path d="M10.938 40.648h-.848v11.611h.848V40.648z" fill="url(#AU)"/><path d="M34.504 40.109H-1.551v1.31h36.055v-1.31z" fill="url(#AV)"/><path d="M13.084 40.122H-1.57v1.31h14.653v-1.31z" fill="url(#AW)"/></g><defs><filter id="B" x="-24" y="-22" width="98" height="98" filterUnits="userSpaceOnUse" class="D"><feFlood result="A" class="E"/><feColorMatrix in="SourceAlpha" values="0 0 0 0 0 0 0 0 0 0 0 0 0 0 0 0 0 0 127 0"/><feOffset dy="2"/><feGaussianBlur stdDeviation="12"/><feColorMatrix values="0 0 0 0 0 0 0 0 0 0 0 0 0 0 0 0 0 0 0.04 0"/><feBlend in2="A"/><feBlend in="SourceGraphic"/></filter><filter id="C" x="-18.212" y="-26.044" width="78.721" height="85.238" filterUnits="userSpaceOnUse" class="D"><feFlood result="A" class="E"/><feColorMatrix in="SourceAlpha" values="0 0 0 0 0 0 0 0 0 0 0 0 0 0 0 0 0 0 127 0" result="B"/><feOffset/><feGaussianBlur stdDeviation="15"/><feComposite in2="B" operator="out"/><feColorMatrix values="0 0 0 0 0 0 0 0 0 0 0 0 0 0 0 0 0 0 0.25 0"/><feBlend in2="A"/><feBlend in="SourceGraphic"/></filter><filter id="D" x="-12.673" y="-21.824" width="78.653" height="83.836" filterUnits="userSpaceOnUse" class="D"><feFlood result="A" class="E"/><feColorMatrix in="SourceAlpha" values="0 0 0 0 0 0 0 0 0 0 0 0 0 0 0 0 0 0 127 0" result="B"/><feOffset/><feGaussianBlur stdDeviation="15"/><feComposite in2="B" operator="out"/><feColorMatrix values="0 0 0 0 0 0 0 0 0 0 0 0 0 0 0 0 0 0 0.25 0"/><feBlend in2="A"/><feBlend in="SourceGraphic"/></filter><filter id="E" x="4.206" y="25.905" width="11.526" height="12.611" filterUnits="userSpaceOnUse" class="D"><feFlood result="A" class="E"/><feColorMatrix in="SourceAlpha" values="0 0 0 0 0 0 0 0 0 0 0 0 0 0 0 0 0 0 127 0" result="B"/><feOffset dy="4"/><feGaussianBlur stdDeviation="1.5"/><feComposite in2="B" operator="out"/><feColorMatrix values="0 0 0 0 0 0 0 0 0 0 0 0 0 0 0 0 0 0 0.4 0"/><feBlend in2="A"/><feBlend in="SourceGraphic"/></filter><filter id="F" x="7.492" y="26.196" width="4.749" height="7.529" filterUnits="userSpaceOnUse" class="D"><feFlood class="E"/><feBlend in="SourceGraphic" result="B"/><feColorMatrix in="SourceAlpha" values="0 0 0 0 0 0 0 0 0 0 0 0 0 0 0 0 0 0 127 0" result="C"/><feOffset dy="4"/><feGaussianBlur stdDeviation="2"/><feComposite in2="C" operator="arithmetic" k2="-1" k3="1"/><feColorMatrix values="0 0 0 0 0 0 0 0 0 0 0 0 0 0 0 0 0 0 0.25 0"/><feBlend in2="B"/></filter><linearGradient id="G" x1="1284.91" y1="1075.44" x2="1314.47" y2="1145.19" xlink:href="#AZ"><stop offset=".01" stop-color="#1e1548"/><stop offset=".99" stop-color="#2e99b0"/></linearGradient><linearGradient id="H" x1="742.482" y1="1109.65" x2="779.001" y2="1157.45" xlink:href="#AZ"><stop offset=".01" stop-color="#1e1548"/><stop offset=".99" stop-color="#2e99b0"/></linearGradient><linearGradient id="I" x1="3145.12" y1="6147.7" x2="4024.24" y2="5286.37" xlink:href="#AZ"><stop offset=".01" stop-color="#1e1548"/><stop offset=".99" stop-color="#2e99b0"/></linearGradient><linearGradient id="J" x1="2436.95" y1="2364.36" x2="2470.92" y2="2444.29" xlink:href="#AZ"><stop offset=".01" stop-color="#1e1548"/><stop offset=".99" stop-color="#2e99b0"/></linearGradient><linearGradient id="K" x1="5537.55" y1="3982.53" x2="4761.66" y2="3982.53" xlink:href="#AZ"><stop offset=".01" stop-color="#1e1548"/><stop offset=".99" stop-color="#2e99b0"/></linearGradient><linearGradient id="L" x1="3.557" y1="57.6" x2="3.557" y2="42.607" xlink:href="#AZ"><stop offset=".01" stop-color="#f4eeff"/><stop offset=".99" stop-color="#fff"/></linearGradient><linearGradient id="M" x1="16.296" y1="11.336" x2="16.296" y2="9.864" xlink:href="#AZ"><stop offset=".01" stop-color="#0b1321"/><stop offset=".99" stop-color="#142133"/></linearGradient><linearGradient id="N" x1="1090.16" y1="302.626" x2="1090.16" y2="334.959" xlink:href="#AZ"><stop offset=".01" stop-color="#0b1321"/><stop offset=".99" stop-color="#142133"/></linearGradient><linearGradient id="O" x1="853.882" y1="276.816" x2="853.882" y2="298.357" xlink:href="#AZ"><stop offset=".01" stop-color="#f4eeff"/><stop offset=".99" stop-color="#fff"/></linearGradient><linearGradient id="P" x1="16.349" y1="10.58" x2="16.349" y2="7.45" xlink:href="#AZ"><stop offset=".01" stop-color="#ed9264"/><stop offset=".99" stop-color="#ffc7a7"/></linearGradient><linearGradient id="Q" x1="698.705" y1="244.253" x2="688.461" y2="269.866" xlink:href="#AZ"><stop offset=".01" stop-color="#ed9264"/><stop offset=".99" stop-color="#ffc7a7"/></linearGradient><linearGradient id="R" x1="944.51" y1="302.317" x2="944.51" y2="342.962" xlink:href="#AZ"><stop offset=".01" stop-color="#0b1321"/><stop offset=".99" stop-color="#142133"/></linearGradient><linearGradient id="S" x1="180.727" y1="85.244" x2="180.727" y2="82.663" xlink:href="#AZ"><stop offset=".01" stop-color="#f4eeff"/><stop offset=".99" stop-color="#fff"/></linearGradient><linearGradient id="T" x1="1364.97" y1="214.437" x2="1364.97" y2="198.527" xlink:href="#AZ"><stop offset=".01" stop-color="#0b1321"/><stop offset=".99" stop-color="#142133"/></linearGradient><linearGradient id="U" x1="1768.44" y1="432.721" x2="1768.44" y2="412.371" xlink:href="#AZ"><stop offset=".01" stop-color="#f4eeff"/><stop offset=".99" stop-color="#fff"/></linearGradient><linearGradient id="V" x1="911.732" y1="286.106" x2="911.732" y2="300.379" xlink:href="#AZ"><stop offset=".01" stop-color="#f4eeff"/><stop offset=".99" stop-color="#fff"/></linearGradient><linearGradient id="W" x1="21.849" y1="10.523" x2="21.849" y2="14.486" xlink:href="#AZ"><stop offset=".01" stop-color="#ffc7a7"/><stop offset=".99" stop-color="#ed9264"/></linearGradient><linearGradient id="X" x1="813.126" y1="319.306" x2="819.882" y2="304.673" xlink:href="#AZ"><stop offset=".01" stop-color="#ffc7a7"/><stop offset=".99" stop-color="#ed9264"/></linearGradient><linearGradient id="Y" x1="1112.6" y1="402.723" x2="1117.68" y2="378.226" xlink:href="#AZ"><stop offset=".01" stop-color="#0b1321"/><stop offset=".99" stop-color="#142133"/></linearGradient><linearGradient id="Z" x1="1767.07" y1="331.71" x2="1767.07" y2="299.089" xlink:href="#AZ"><stop offset=".01" stop-color="#f4eeff"/><stop offset=".99" stop-color="#fff"/></linearGradient><linearGradient id="a" x1="919.135" y1="151.387" x2="918.208" y2="159.852" xlink:href="#AZ"><stop offset=".01" stop-color="#0b1321"/><stop offset=".99" stop-color="#142133"/></linearGradient><linearGradient id="b" x1="29.997" y1="5.135" x2="29.777" y2="17.083" xlink:href="#AZ"><stop stop-color="#009a5d"/><stop offset="1" stop-color="#37eaa3"/></linearGradient><linearGradient id="c" x1="1575.96" y1="230.15" x2="1725.88" y2="230.15" xlink:href="#AZ"><stop offset=".01" stop-color="#f4eeff"/><stop offset=".99" stop-color="#fff"/></linearGradient><linearGradient id="d" x1="425.491" y1="2730.59" x2="425.491" y2="2826.09" xlink:href="#AZ"><stop offset=".01" stop-color="#0b1321"/><stop offset=".99" stop-color="#142133"/></linearGradient><linearGradient id="e" x1="487.671" y1="2730.59" x2="487.671" y2="2826.09" xlink:href="#AZ"><stop offset=".01" stop-color="#0b1321"/><stop offset=".99" stop-color="#142133"/></linearGradient><linearGradient id="f" x1="440.6" y1="2725.99" x2="440.6" y2="2940.19" xlink:href="#AZ"><stop offset=".01" stop-color="#0b1321"/><stop offset=".99" stop-color="#142133"/></linearGradient><linearGradient id="g" x1="727.619" y1="2725.99" x2="727.619" y2="2940.19" xlink:href="#AZ"><stop offset=".01" stop-color="#0b1321"/><stop offset=".99" stop-color="#142133"/></linearGradient><linearGradient id="h" x1="5967.83" y1="4786.3" x2="6460.23" y2="4282.93" xlink:href="#AZ"><stop offset=".01" stop-color="#0b1321"/><stop offset=".99" stop-color="#142133"/></linearGradient><linearGradient id="i" x1="2026.23" y1="5323.94" x2="2379.8" y2="5200.22" xlink:href="#AZ"><stop offset=".01" stop-color="#0b1321"/><stop offset=".99" stop-color="#142133"/></linearGradient><linearGradient id="j" x1="4204.81" y1="5155.75" x2="4906.86" y2="4642.44" xlink:href="#AZ"><stop offset=".01" stop-color="#0b1321"/><stop offset=".99" stop-color="#142133"/></linearGradient><linearGradient id="k" x1="3675.28" y1="4699.97" x2="4249.75" y2="3964.81" xlink:href="#AZ"><stop offset=".01" stop-color="#0b1321"/><stop offset=".99" stop-color="#142133"/></linearGradient><linearGradient id="l" x1="5544.4" y1="8730.16" x2="6136.82" y2="6974.54" xlink:href="#AZ"><stop offset=".01" stop-color="#0b1321"/><stop offset=".99" stop-color="#142133"/></linearGradient><linearGradient id="m" x1="2297.61" y1="3820.32" x2="2575.93" y2="3551.38" xlink:href="#AZ"><stop offset=".01" stop-color="#0b1321"/><stop offset=".99" stop-color="#142133"/></linearGradient><linearGradient id="n" x1="2656.32" y1="3104.2" x2="3038.74" y2="1853.87" xlink:href="#AZ"><stop stop-color="#707070"/><stop offset="1" stop-color="#e8e8e8"/></linearGradient><linearGradient id="o" x1="946.499" y1="5546.78" x2="1649.65" y2="4983.37" xlink:href="#AZ"><stop offset=".01" stop-color="#0b1321"/><stop offset=".99" stop-color="#142133"/></linearGradient><linearGradient id="p" x1="4.674" y1="38.89" x2="11.385" y2="44.033" xlink:href="#AZ"><stop stop-color="#ff7154"/><stop offset="1" stop-color="#ffaf50"/></linearGradient><linearGradient id="q" x1="2391.22" y1="2489.91" x2="2548.62" y2="2183.81" xlink:href="#AZ"><stop offset=".01" stop-color="#0b1321"/><stop offset=".99" stop-color="#142133"/></linearGradient><linearGradient id="r" x1="2463.93" y1="3554.17" x2="2641.07" y2="4158.85" xlink:href="#AZ"><stop offset=".01" stop-color="#0b1321"/><stop offset=".99" stop-color="#142133"/></linearGradient><linearGradient id="s" x1="1363.09" y1="3219.43" x2="1514.77" y2="3835.23" xlink:href="#AZ"><stop offset=".01" stop-color="#f4eeff"/><stop offset=".99" stop-color="#fff"/></linearGradient><linearGradient id="t" x1="10.825" y1="29.336" x2="10.417" y2="35.62" xlink:href="#AZ"><stop offset=".01" stop-color="#c11435"/><stop offset=".99" stop-color="#ff2e4c"/></linearGradient><linearGradient id="u" x1="2863.89" y1="4648.6" x2="3579.04" y2="4404.73" xlink:href="#AZ"><stop offset=".01" stop-color="#0b1321"/><stop offset=".99" stop-color="#142133"/></linearGradient><linearGradient id="v" x1="1618.08" y1="1677.62" x2="1679.3" y2="1887.55" xlink:href="#AZ"><stop offset=".01" stop-color="#f4eeff"/><stop offset=".99" stop-color="#fff"/></linearGradient><linearGradient id="w" x1="1435.93" y1="1141.06" x2="1459.16" y2="1232.06" xlink:href="#AZ"><stop offset=".01" stop-color="#f4eeff"/><stop offset=".99" stop-color="#fff"/></linearGradient><linearGradient id="x" x1="7.377" y1="26.793" x2="14.104" y2="28.133" xlink:href="#AZ"><stop stop-color="#ff7154"/><stop offset="1" stop-color="#ffaf50"/></linearGradient><linearGradient id="y" x1="1593.45" y1="757.364" x2="1639.04" y2="623.019" xlink:href="#AZ"><stop offset=".01" stop-color="#ffc7a7"/><stop offset=".99" stop-color="#ed9264"/></linearGradient><linearGradient id="z" x1="3470.98" y1="2270.14" x2="3512.32" y2="1808.39" xlink:href="#AZ"><stop offset=".01" stop-color="#0b1321"/><stop offset=".99" stop-color="#142133"/></linearGradient><linearGradient id="AA" x1="1662.79" y1="1632.31" x2="1826.68" y2="1477.05" xlink:href="#AZ"><stop offset=".01" stop-color="#0b1321"/><stop offset=".99" stop-color="#142133"/></linearGradient><linearGradient id="AB" x1="281.629" y1="370.045" x2="284.074" y2="390.247" xlink:href="#AZ"><stop offset=".01" stop-color="#ffc7a7"/><stop offset=".99" stop-color="#ed9264"/></linearGradient><linearGradient id="AC" x1="550.742" y1="2140.51" x2="446.622" y2="2480.51" xlink:href="#AZ"><stop offset=".01" stop-color="#c11435"/><stop offset=".99" stop-color="#ff2e4c"/></linearGradient><linearGradient id="AD" x1="20.585" y1="36.144" x2="21.816" y2="36.656" xlink:href="#AZ"><stop stop-color="#ff7154"/><stop offset="1" stop-color="#ffaf50"/></linearGradient><linearGradient id="AE" x1="20.36" y1="37.828" x2="21.754" y2="38.237" xlink:href="#AZ"><stop stop-color="#ff7154"/><stop offset="1" stop-color="#ffaf50"/></linearGradient><linearGradient id="AF" x1="27.189" y1="34.405" x2="31.628" y2="35.34" xlink:href="#AZ"><stop stop-color="#ff7154"/><stop offset="1" stop-color="#ffaf50"/></linearGradient><linearGradient id="AG" x1="8855.53" y1="5475.88" x2="8855.53" y2="4758.79" xlink:href="#AZ"><stop offset=".01" stop-color="#0b1321"/><stop offset=".99" stop-color="#142133"/></linearGradient><linearGradient id="AH" x1="-4282.96" y1="4699.97" x2="-4857.32" y2="3964.84" xlink:href="#AZ"><stop offset=".01" stop-color="#0b1321"/><stop offset=".99" stop-color="#142133"/></linearGradient><linearGradient id="AI" x1="-6406.9" y1="4786.3" x2="-6899.3" y2="4282.94" xlink:href="#AZ"><stop offset=".01" stop-color="#0b1321"/><stop offset=".99" stop-color="#142133"/></linearGradient><linearGradient id="AJ" x1="-2155.45" y1="5323.95" x2="-2508.98" y2="5200.22" xlink:href="#AZ"><stop offset=".01" stop-color="#0b1321"/><stop offset=".99" stop-color="#142133"/></linearGradient><linearGradient id="AK" x1="37.504" y1="25.306" x2="44.542" y2="26.942" xlink:href="#AZ"><stop stop-color="#ff7154"/><stop offset="1" stop-color="#ffaf50"/></linearGradient><linearGradient id="AL" x1="-7498.88" y1="2577.43" x2="-8026.61" y2="1980.76" xlink:href="#AZ"><stop offset=".01" stop-color="#0b1321"/><stop offset=".99" stop-color="#142133"/></linearGradient><linearGradient id="AM" x1="-4885.45" y1="1153.05" x2="-4982.65" y2="923.113" xlink:href="#AZ"><stop offset=".01" stop-color="#0b1321"/><stop offset=".99" stop-color="#142133"/></linearGradient><linearGradient id="AN" x1="26.75" y1="25.973" x2="26.75" y2="47.126" xlink:href="#AZ"><stop stop-color="#d2d5ea"/><stop offset="1" stop-color="#636ec2"/></linearGradient><linearGradient id="AO" x1="-885.494" y1="2730.59" x2="-885.494" y2="2826.09" xlink:href="#AZ"><stop offset=".01" stop-color="#0b1321"/><stop offset=".99" stop-color="#142133"/></linearGradient><linearGradient id="AP" x1="-1168.73" y1="2730.59" x2="-1168.73" y2="2826.09" xlink:href="#AZ"><stop offset=".01" stop-color="#0b1321"/><stop offset=".99" stop-color="#142133"/></linearGradient><linearGradient id="AQ" x1="-898.522" y1="2725.99" x2="-898.522" y2="2940.19" xlink:href="#AZ"><stop offset=".01" stop-color="#0b1321"/><stop offset=".99" stop-color="#142133"/></linearGradient><linearGradient id="AR" x1="-1382.68" y1="2725.99" x2="-1382.68" y2="2940.19" xlink:href="#AZ"><stop offset=".01" stop-color="#0b1321"/><stop offset=".99" stop-color="#142133"/></linearGradient><linearGradient id="AS" x1="344.086" y1="3790.72" x2="344.086" y2="4914.1" xlink:href="#AZ"><stop stop-color="#382317"/><stop offset="1" stop-color="#9b684c"/></linearGradient><linearGradient id="AT" x1="77.82" y1="3790.72" x2="77.82" y2="4757.35" xlink:href="#AZ"><stop offset=".01" stop-color="#9b684c"/><stop offset=".99" stop-color="#142133"/></linearGradient><linearGradient id="AU" x1="248.024" y1="3764.59" x2="248.024" y2="4940.22" xlink:href="#AZ"><stop offset=".01" stop-color="#9b684c"/><stop offset=".99" stop-color="#142133"/></linearGradient><linearGradient id="AV" x1="10116.6" y1="460.384" x2="10116.6" y2="593.063" xlink:href="#AZ"><stop offset=".01" stop-color="#654533"/><stop offset=".99" stop-color="#142133"/></linearGradient><linearGradient id="AW" x1="4110.55" y1="460.397" x2="4110.55" y2="593.076" xlink:href="#AZ"><stop offset=".01" stop-color="#9b684c"/><stop offset=".99" stop-color="#142133"/></linearGradient><path id="AX" d="M28.95 14.909H13.375v.133H28.95v-.133z"/><path id="AY" d="M16.295 11.066c1.613 0 2.92-1.319 2.92-2.946s-1.307-2.946-2.92-2.946-2.92 1.319-2.92 2.946 1.307 2.946 2.92 2.946z"/><linearGradient id="AZ" gradientUnits="userSpaceOnUse"/></defs></svg>